<?xml version="1.0" standalone="no"?>
<!DOCTYPE svg PUBLIC "-//W3C//DTD SVG 20010904//EN"
 "http://www.w3.org/TR/2001/REC-SVG-20010904/DTD/svg10.dtd">
<svg version="1.0" xmlns="http://www.w3.org/2000/svg"
 width="225.000000pt" height="225.000000pt" viewBox="0 0 225.000000 225.000000"
 preserveAspectRatio="xMidYMid meet">

<g transform="translate(0.000000,225.000000) scale(0.100000,-0.100000)"
fill="#000000" stroke="none">
<path d="M953 1941 c-107 -31 -173 -70 -259 -156 -83 -82 -122 -144 -160 -255
-29 -86 -27 -262 5 -359 94 -286 385 -460 681 -407 336 60 555 386 485 721
-46 217 -224 403 -442 459 -81 21 -230 20 -310 -3z m77 -416 l0 -255 170 0
170 0 0 85 0 85 -85 0 -85 0 0 171 0 171 28 -7 c107 -26 227 -125 275 -226 80
-169 50 -354 -78 -488 -247 -259 -677 -124 -738 233 -30 179 67 367 235 451
117 58 108 75 108 -220z"/>
<path d="M510 463 l0 -138 45 0 c40 0 45 3 45 23 0 17 -6 22 -25 22 l-25 0 0
115 c0 108 -1 115 -20 115 -19 0 -20 -7 -20 -137z"/>
<path d="M1030 464 l0 -136 30 4 c17 3 33 1 36 -4 10 -16 64 -7 90 15 23 20
27 32 27 72 0 40 -4 52 -27 72 -29 25 -56 29 -87 13 -18 -10 -19 -7 -19 45 0
52 -1 55 -25 55 l-25 0 0 -136z m127 -20 c15 -24 15 -29 2 -53 -18 -32 -41
-38 -63 -16 -20 21 -21 59 0 79 22 23 41 20 61 -10z"/>
<path d="M1244 585 c-6 -15 12 -45 27 -45 16 0 38 31 33 45 -8 20 -53 19 -60
0z"/>
<path d="M1470 545 c0 -52 -1 -55 -19 -45 -33 17 -61 11 -92 -19 -41 -41 -40
-91 1 -133 26 -25 36 -29 63 -24 18 4 47 6 65 6 l32 -1 0 136 0 135 -25 0
c-24 0 -25 -3 -25 -55z m-18 -92 c22 -20 23 -51 1 -75 -20 -22 -37 -23 -57 -2
-29 28 -10 94 26 94 6 0 20 -7 30 -17z"/>
<path d="M636 487 c-20 -21 -26 -36 -26 -72 0 -74 61 -117 121 -85 10 6 19 7
19 2 0 -4 9 -8 20 -8 18 0 20 7 20 88 0 79 -2 88 -19 88 -10 0 -39 3 -64 6
-40 6 -49 3 -71 -19z m100 -45 c16 -31 7 -61 -22 -74 -17 -8 -27 -8 -39 2 -18
15 -20 71 -3 88 19 19 51 10 64 -16z"/>
<path d="M896 502 c-3 -5 -19 -7 -36 -4 l-30 4 0 -85 c0 -82 1 -85 25 -89 25
-5 25 -4 25 57 0 66 15 93 45 81 11 -4 15 -21 15 -70 0 -60 1 -64 25 -68 25
-5 25 -5 25 68 0 61 -4 78 -20 94 -20 20 -64 27 -74 12z"/>
<path d="M1579 481 c-47 -47 -35 -128 22 -151 52 -22 140 10 106 38 -10 9 -22
8 -44 0 -25 -9 -35 -9 -47 1 -28 24 -17 31 44 31 l60 0 0 30 c0 41 -39 80 -80
80 -21 0 -41 -9 -61 -29z m89 -28 c2 -9 -8 -13 -33 -13 -33 0 -36 2 -25 15 15
18 51 16 58 -2z"/>
<path d="M1250 413 c0 -87 0 -88 25 -88 25 0 25 1 25 88 0 86 0 87 -25 87 -25
0 -25 -1 -25 -87z"/>
</g>
</svg>
